<svg viewBox="0 0 168 50" fill="none" xmlns="http://www.w3.org/2000/svg" aria-describedby="my-description" role="img" aria-label="Homepage" class="app-header-logo-svg -en ui-logo"><title id="my-title">Bell Let's Talk</title><desc id="my-description">Logo of Bell Let's Talk</desc><path d="M47.4583 32.6553C47.4583 32.9807 47.3612 33.2988 47.1793 33.5693C46.9974 33.8399 46.7389 34.0508 46.4364 34.1753C46.1339 34.2998 45.8011 34.3324 45.48 34.2689C45.159 34.2054 44.8641 34.0487 44.6326 33.8186C44.4011 33.5886 44.2434 33.2954 44.1795 32.9762C44.1157 32.6571 44.1484 32.3263 44.2737 32.0256C44.3989 31.725 44.6112 31.4681 44.8833 31.2873C45.1555 31.1065 45.4756 31.01 45.803 31.01C46.242 31.01 46.663 31.1833 46.9735 31.4919C47.2838 31.8004 47.4583 32.2189 47.4583 32.6553Z" fill="#fff"></path><path d="M33.9121 32.6553C33.9121 32.9807 33.8151 33.2988 33.6332 33.5693C33.4513 33.8399 33.1928 34.0508 32.8903 34.1753C32.5879 34.2998 32.2551 34.3324 31.9339 34.2689C31.6129 34.2054 31.318 34.0487 31.0865 33.8186C30.8549 33.5886 30.6973 33.2954 30.6335 32.9762C30.5696 32.6571 30.6024 32.3263 30.7277 32.0256C30.8529 31.725 31.0651 31.4681 31.3373 31.2873C31.6094 31.1065 31.9295 31.01 32.2569 31.01C32.6959 31.01 33.1169 31.1833 33.4274 31.4919C33.7378 31.8004 33.9121 32.2189 33.9121 32.6553Z" fill="#fff"></path><path d="M39.0911 43.8319C36.6525 43.795 34.2813 43.0308 32.2849 41.6382C32.187 41.5641 32.1048 41.4716 32.0428 41.3659C31.9809 41.2603 31.9405 41.1435 31.9239 41.0223C31.9074 40.9011 31.9151 40.7779 31.9465 40.6596C31.9778 40.5414 32.0323 40.4304 32.1069 40.3331C32.1814 40.2358 32.2745 40.154 32.3808 40.0924C32.487 40.0309 32.6046 39.9907 32.7264 39.9743C32.8484 39.9579 32.9724 39.9654 33.0914 39.9966C33.2103 40.0278 33.322 40.082 33.4198 40.1561C35.0922 41.2969 37.0632 41.9278 39.0911 41.9714C41.0428 41.9119 42.9328 41.2777 44.5214 40.1491C44.7173 39.9972 44.9659 39.9289 45.2124 39.9592C45.459 39.9894 45.6834 40.1158 45.8362 40.3105C45.989 40.5052 46.0577 40.7523 46.0273 40.9974C45.9968 41.2425 45.8697 41.4655 45.6738 41.6174C43.757 43.0017 41.4599 43.7696 39.0911 43.818V43.8319Z" fill="#fff"></path><path d="M68.0759 46.0013V28.6462H69.986V46.0291C69.986 46.4838 70.1886 46.7233 70.702 46.8517H79.3729V48.6081H70.7578C70.4062 48.6249 70.0548 48.5694 69.7257 48.4452C69.3966 48.3209 69.0968 48.1305 68.8451 47.8858C68.5933 47.6412 68.3951 47.3476 68.2627 47.0233C68.1304 46.699 68.0667 46.3511 68.0759 46.0013Z" fill="#fff"></path><path d="M86.7342 47.2475C88.4374 47.255 90.0941 46.6967 91.4416 45.6613L92.2971 47.0219C90.6668 48.2736 88.6502 48.9249 86.591 48.865C82.1699 48.865 79.6277 45.8591 79.6277 41.746C79.6277 37.7473 82.369 34.6304 86.2628 34.6304C89.9714 34.6304 92.4264 37.0983 92.6254 40.7255C92.6254 40.7255 92.7093 41.805 92.7093 42.0306H81.5589C81.6252 45.092 83.4516 47.2475 86.7342 47.2475ZM81.5973 40.4721H90.6978C90.3835 37.9764 88.9308 36.1889 86.2767 36.1889C83.7379 36.1889 81.9674 38.1187 81.5973 40.4721Z" fill="#fff"></path><path d="M94.8639 31.3398H96.7183V34.9983H101.282V36.7338H96.7183V44.37C96.7183 46.1056 97.6018 47.1191 99.3688 47.1191C100.364 47.0905 101.348 46.8994 102.281 46.5533V48.1326C101.27 48.5547 100.183 48.7673 99.086 48.7574C96.404 48.7574 94.8639 47.1399 94.8639 44.4776V31.3398Z" fill="#fff"></path><path d="M103.252 33.7486L102.623 33.5507C103.193 32.4157 103.535 31.7076 103.65 30.7149C102.879 30.5448 102.508 30.0624 102.508 29.5244C102.492 29.3525 102.512 29.1791 102.567 29.0156C102.623 28.8521 102.713 28.7022 102.832 28.5761C102.95 28.45 103.095 28.3505 103.255 28.2841C103.416 28.2178 103.588 28.1862 103.762 28.1915C104.677 28.1915 105.103 28.8857 105.103 29.75C105.103 31.0828 104.105 32.7003 103.252 33.7486Z" fill="#fff"></path><path d="M111.839 40.781C114.375 41.4752 116.746 42.5408 116.746 45.1788C116.746 47.3343 115.576 48.9483 111.04 48.9483C108.7 48.9483 106.531 48.3548 105.647 46.4839L107.243 45.689C107.942 46.9941 109.042 47.4245 111.183 47.4245C114.064 47.4245 114.976 46.5741 114.976 45.3836C114.976 43.8806 113.435 43.0858 111.382 42.52C108.186 41.6418 106.276 40.5901 106.276 38.1812C106.276 35.8279 108.214 34.7102 111.266 34.7102C112.95 34.7102 115.233 34.8248 116.316 36.9803L114.804 37.7439C114.106 36.4978 112.709 36.2132 111.151 36.2132C109.783 36.2132 108.099 36.5811 108.099 38.0285C108.099 39.108 108.644 39.9029 111.839 40.781Z" fill="#fff"></path><path d="M128.556 48.6081H126.608V30.3193H120.737V28.6462H134.461V30.3193H128.556V48.6081Z" fill="#fff"></path><path d="M146.213 34.9983V48.6081H144.589L144.558 48.4971C144.445 47.9 143.988 47.9001 143.618 48.0146C143.017 48.1847 142.448 48.3825 141.847 48.5526C141.204 48.7234 140.543 48.8155 139.877 48.8268C135.712 48.8268 133.002 46.1611 133.002 41.9611C133.002 37.966 135.625 34.6477 140.045 34.6477C142.015 34.6477 143.499 35.3419 144.469 36.4318V35.0156L146.213 34.9983ZM140.136 36.2166C136.627 36.2166 134.898 38.799 134.898 41.8883C134.898 44.9775 136.669 47.2197 140.059 47.2197C141.584 47.1758 143.074 46.7573 144.396 46.0014V40.5554C144.386 37.8341 142.448 36.2166 140.136 36.2166Z" fill="#fff"></path><path d="M150.235 28.4485H152.1V48.6081H150.246L150.235 28.4485Z" fill="#fff"></path><path d="M162.444 43.3357C161.745 42.2562 161.445 41.9473 160.349 41.9473H157.904V48.6116H156.081V28.4485H157.907V40.3298H159.137C161.504 40.3298 162.629 40.2152 163.956 37.3239L165.004 34.9983H167.001L165.377 38.4693C164.928 39.5467 164.162 40.4647 163.18 41.1038L168 48.6186H165.754L162.444 43.3357Z" fill="#fff"></path><path d="M99.313 0.118024H103.455V23.9674H99.313V17.6605H88.2394C88.3512 19.3752 89.6013 21.1593 92.43 21.1663C93.774 21.1861 95.0877 20.768 96.1701 19.9757L98.1606 22.2978C96.7637 23.5439 94.7348 24.3527 91.9202 24.3527C89.6328 24.3527 87.3629 23.6828 85.7985 21.9681C84.9615 21.032 84.3871 19.8936 84.1327 18.6671C83.2387 21.7182 80.4589 23.7556 76.3941 23.9153C75.1054 23.9674 73.7296 23.9778 72.3223 23.9674C70.7333 23.9674 69.1095 23.9674 67.5206 23.9674V0H73.108C75.9681 0 78.2833 0.291565 79.9875 1.73551C80.5801 2.2507 81.0526 2.88803 81.3723 3.60315C81.6919 4.31827 81.851 5.09402 81.8383 5.87644C81.8464 6.7434 81.6418 7.59924 81.242 8.3698C80.8422 9.14037 80.2593 9.8024 79.544 10.2985C81.545 10.9164 83.4412 12.3811 84.1466 14.554C84.9358 11.4752 87.5968 8.54912 91.9202 8.54912C94.7139 8.54912 96.7637 9.59042 98.0349 11.2704C98.6667 12.088 99.1037 13.0374 99.313 14.0472V0.118024ZM71.7809 9.54877H73.1395C73.6924 9.56184 74.2454 9.5235 74.7912 9.43423C77.0017 8.983 77.3998 7.35162 77.3998 6.31032C77.4291 5.7223 77.2655 5.14074 76.9336 4.65311C76.6017 4.16548 76.1195 3.79816 75.5594 3.60639C74.7131 3.33007 73.8236 3.20664 72.9333 3.24194H71.7809V9.54877ZM79.8338 16.6262C79.8338 14.8386 78.7478 13.4849 76.8551 12.9955C76.0751 12.8265 75.2786 12.745 74.4804 12.7525H71.7809V20.5727H74.7982C75.3567 20.5824 75.9151 20.5453 76.4674 20.4616C78.8386 20.0382 79.8373 18.4797 79.8373 16.6262H79.8338ZM95.4088 14.6789C95.0805 12.8046 93.8059 11.6765 91.8922 11.6765C89.9785 11.6765 88.6759 12.9365 88.3128 14.6789H95.4088Z" fill="#fff"></path><path d="M110.303 0.11792H106.224V23.9673H110.303V0.11792Z" fill="#fff"></path><path fill-rule="evenodd" clip-rule="evenodd" d="M47.4583 32.6553C47.4583 32.9807 47.3612 33.2988 47.1793 33.5693C46.9974 33.8399 46.7389 34.0508 46.4364 34.1753C46.1339 34.2998 45.8011 34.3324 45.48 34.2689C45.159 34.2054 44.8641 34.0487 44.6326 33.8186C44.4011 33.5886 44.2434 33.2954 44.1795 32.9762C44.1157 32.6571 44.1484 32.3263 44.2737 32.0256C44.3989 31.725 44.6112 31.4681 44.8833 31.2873C45.1555 31.1065 45.4756 31.01 45.803 31.01C46.242 31.01 46.663 31.1833 46.9735 31.4919C47.2838 31.8004 47.4583 32.2189 47.4583 32.6553ZM33.9121 32.6553C33.9121 32.9807 33.8151 33.2988 33.6332 33.5693C33.4513 33.8399 33.1928 34.0508 32.8903 34.1753C32.5879 34.2998 32.2551 34.3324 31.9339 34.2689C31.6129 34.2054 31.318 34.0487 31.0865 33.8186C30.8549 33.5886 30.6973 33.2954 30.6335 32.9762C30.5696 32.6571 30.6024 32.3263 30.7277 32.0256C30.8529 31.725 31.0651 31.4681 31.3373 31.2873C31.6094 31.1065 31.9295 31.01 32.2569 31.01C32.6959 31.01 33.1169 31.1833 33.4274 31.4919C33.7378 31.8004 33.9121 32.2189 33.9121 32.6553ZM39.0911 43.8319C36.6525 43.795 34.2813 43.0308 32.2849 41.6382C32.187 41.5641 32.1048 41.4716 32.0428 41.3659C31.9809 41.2603 31.9405 41.1435 31.9239 41.0223C31.9074 40.9011 31.9151 40.7779 31.9465 40.6596C31.9778 40.5414 32.0323 40.4304 32.1069 40.3331C32.1814 40.2358 32.2745 40.154 32.3808 40.0924C32.487 40.0309 32.6046 39.9907 32.7264 39.9743C32.8484 39.9579 32.9724 39.9654 33.0914 39.9966C33.2103 40.0278 33.322 40.082 33.4198 40.1561C35.0922 41.2969 37.0632 41.9278 39.0911 41.9714C41.0428 41.9119 42.9328 41.2777 44.5214 40.1491C44.7173 39.9972 44.9659 39.9289 45.2124 39.9592C45.459 39.9894 45.6834 40.1158 45.8362 40.3105C45.989 40.5052 46.0577 40.7523 46.0273 40.9974C45.9968 41.2425 45.8697 41.4655 45.6738 41.6174C43.757 43.0017 41.4599 43.7696 39.0911 43.818V43.8319Z" fill="#fff"></path><path fill-rule="evenodd" clip-rule="evenodd" d="M55.1479 32.5443C55.1479 41.1628 47.9193 48.1639 39.0352 48.1639C30.1512 48.1639 22.9155 41.1628 22.9155 32.5443C22.9155 31.6784 22.9885 30.8289 23.1288 30.0012L26.254 27.9279H36.0319C36.9844 27.9261 37.8973 27.5492 38.5708 26.8798C39.2443 26.2103 39.6234 25.3029 39.6253 24.3562V16.935V15.07V4.12367C39.6234 3.17697 39.2443 2.26956 38.5708 1.60014C37.8973 0.930717 36.9844 0.553837 36.0319 0.552002H3.59341C2.64066 0.552921 1.7272 0.929513 1.0535 1.59913C0.379813 2.26875 0.00092455 3.17669 0 4.12367V24.3562C0.00092455 25.3032 0.379813 26.2112 1.0535 26.8808C1.7272 27.5504 2.64066 27.927 3.59341 27.9279H8.95035L4.67947 38.4312C4.57268 38.6944 4.53246 38.9797 4.56235 39.2619C4.59223 39.5442 4.69131 39.8149 4.85088 40.0502C5.01047 40.2856 5.22569 40.4784 5.47769 40.6119C5.7297 40.7454 6.01078 40.8154 6.29633 40.8158C6.64183 40.8162 6.97969 40.7147 7.26714 40.5242L21.0836 31.358C21.0572 31.7455 21.0437 32.1364 21.0437 32.5304C21.0437 42.1764 29.1036 50 39.0352 50C48.9668 50 57.0197 42.1764 57.0197 32.5304C57.0197 23.0759 49.3034 15.372 39.6253 15.07V16.935C48.2371 17.2368 55.1479 24.1174 55.1479 32.5443ZM3.52364 4.05432C3.54228 4.03579 3.56709 4.02466 3.59341 4.02302H36.0319C36.0585 4.02389 36.0838 4.03477 36.1025 4.05346C36.1214 4.07216 36.1323 4.09725 36.1332 4.12367V15.2871C29.6737 16.3052 24.3647 20.6658 22.1525 26.4812L10.0399 34.5159L13.1584 26.8415C13.2651 26.5783 13.3054 26.293 13.2755 26.0108C13.2456 25.7285 13.1466 25.4578 12.987 25.2225C12.8274 24.9871 12.6122 24.7942 12.3602 24.6608C12.1081 24.5273 11.8271 24.4573 11.5415 24.4569H3.59341C3.56709 24.4553 3.54228 24.4441 3.52364 24.4256C3.50499 24.407 3.49379 24.3824 3.49214 24.3562V4.12367C3.49379 4.09751 3.50499 4.07285 3.52364 4.05432ZM36.0319 24.4569H25.7406C25.5539 24.4571 25.3695 24.4865 25.1937 24.5433C27.5365 20.7513 31.4913 17.9987 36.1332 17.1781V24.3562C36.1315 24.3824 36.1204 24.407 36.1017 24.4256C36.0831 24.4441 36.0582 24.4553 36.0319 24.4569Z" fill="#fff"></path></svg>